<svg width="150" height="131" viewBox="0 0 150 131" fill="none" xmlns="http://www.w3.org/2000/svg">
<path fill-rule="evenodd" clip-rule="evenodd" d="M102.743 1.51299C117.133 4.51499 126.621 9.55498 136.539 19.466C142.868 25.79 150 36.034 150 38.802C150 39.758 146.153 42.043 129 51.278C125.975 52.907 121.052 55.617 118.061 57.302C115.069 58.986 112.474 59.944 112.293 59.432C109.78 52.294 102.586 45.885 94.7928 43.842C90.7728 42.788 89.2908 42.858 84.6548 44.32C79.0718 46.079 70.9998 52.169 70.9998 54.62C70.9998 55.379 70.5678 56 70.0398 56C68.4588 56 60.9998 48.2 60.9998 46.545C60.9998 43.896 69.4318 36.321 75.5918 33.437C80.6458 31.07 82.7998 30.665 90.4998 30.637C98.0718 30.609 100.373 31.007 105 33.145C108.025 34.542 111.915 36.881 113.644 38.343C117.532 41.629 118.835 41.648 124.223 38.504C131.86 34.046 131.457 34.488 129.897 32.281C125.313 25.798 112.692 17.926 102.384 15.12C96.7588 13.589 83.5978 13.731 77.3678 15.39C69.3188 17.533 60.0178 22.952 53.7548 29.148L48.0088 34.831L43.4198 30.37C38.2888 25.384 38.2618 25.583 45.0108 18.923C60.0228 4.11098 82.5838 -2.69301 102.743 1.51299ZM36.2158 39.712C38.8468 42.304 40.9998 44.93 40.9998 45.547C40.9998 46.631 31.6898 56 30.6118 56C29.7748 56 19.9998 46.166 19.9998 45.324C19.9998 44.184 29.2768 35 30.4278 35C30.9798 35 33.5838 37.121 36.2158 39.712ZM55.3688 58.868L62.1838 65.736L55.2238 72.978L48.2638 80.219L41.6318 73.522C37.9838 69.838 34.9998 66.313 34.9998 65.689C34.9998 64.564 46.9298 52 47.9978 52C48.3038 52 51.6208 55.091 55.3688 58.868ZM17.0128 60.013C19.7558 62.77 21.9998 65.344 21.9998 65.732C21.9998 66.12 19.6518 68.815 16.7818 71.721L11.5628 77.005L5.89077 71.392L0.217773 65.779L5.27977 60.389C8.06377 57.425 10.7208 55 11.1838 55C11.6468 55 14.2698 57.256 17.0128 60.013ZM117.72 74.132C119.799 75.304 124.2 77.712 127.5 79.483C152.713 93.009 151.042 91.649 148.427 96.509C142.318 107.866 131.104 118.812 120.18 124.08C108.637 129.647 104.743 130.455 89.9998 130.343C77.9628 130.251 75.7408 129.952 69.4998 127.586C59.4858 123.79 52.4968 119.403 45.0668 112.25L38.5748 106L43.2918 101.211L48.0088 96.422L54.5108 102.767C61.4398 109.527 69.3408 113.896 79.3578 116.505C90.2068 119.331 101.898 117.786 113.725 111.964C120.735 108.513 131.726 98.984 130.67 97.275C129.918 96.058 119.507 90 118.168 90C117.694 90 116.375 90.787 115.237 91.75C110.643 95.636 109.367 96.549 106.986 97.649C100.402 100.692 97.6708 101.185 89.2978 100.84C82.1038 100.543 79.4578 99.959 74.7848 97.638C69.1808 94.855 60.9998 87.244 60.9998 84.815C60.9998 83.161 68.0698 76 69.7028 76C70.4158 76 70.9998 76.383 70.9998 76.852C70.9998 78.602 77.3398 84.251 81.3468 86.07C86.6078 88.459 94.3318 88.487 99.5088 86.135C103.645 84.256 109.337 78.55 111.238 74.377C112.563 71.469 112.971 71.454 117.72 74.132ZM36.2158 80.712C38.8468 83.304 40.9998 85.824 40.9998 86.312C40.9998 87.228 31.3838 97 30.4818 97C29.7018 97 19.9998 87.069 19.9998 86.271C19.9998 85.168 29.3078 76 30.4278 76C30.9798 76 33.5838 78.121 36.2158 80.712Z" fill="#F68721"/>
</svg>
