<svg width="942" height="249" viewBox="0 0 942 249" fill="none" xmlns="http://www.w3.org/2000/svg">
<path fill-rule="evenodd" clip-rule="evenodd" d="M196.275 2.3487C223.823 8.09575 241.987 17.7444 260.974 36.7181C273.09 48.8248 286.744 68.436 286.744 73.735C286.744 75.5652 279.379 79.9396 246.541 97.6192C240.75 100.738 231.326 105.926 225.6 109.152C219.872 112.375 214.904 114.209 214.557 113.229C209.746 99.5642 195.974 87.2948 181.055 83.3837C173.359 81.3659 170.522 81.4999 161.647 84.2987C150.959 87.6662 135.506 99.3249 135.506 104.017C135.506 105.47 134.679 106.659 133.668 106.659C130.641 106.659 116.362 91.7266 116.362 88.5583C116.362 83.487 132.504 68.9854 144.297 63.4642C153.972 58.9328 158.096 58.1575 172.837 58.1039C187.332 58.0503 191.737 58.8122 200.595 62.9052C206.387 65.5797 213.834 70.0575 217.144 72.8563C224.587 79.1471 227.081 79.1834 237.396 73.1645C252.016 64.6301 251.245 65.4763 248.258 61.2512C239.483 48.8401 215.321 33.7699 195.587 28.398C184.819 25.4671 159.623 25.7389 147.697 28.9149C132.287 33.0175 114.482 43.3917 102.492 55.2534L91.4915 66.1329L82.7062 57.5928C72.8834 48.0475 72.8317 48.4285 85.7521 35.6785C114.491 7.32233 157.682 -5.7033 196.275 2.3487ZM68.9149 75.4771C73.9517 80.4393 78.0734 85.4665 78.0734 86.6477C78.0734 88.7229 60.2502 106.659 58.1865 106.659C56.5841 106.659 37.8708 87.8327 37.8708 86.2208C37.8708 84.0384 55.6308 66.4565 57.8343 66.4565C58.891 66.4565 63.8761 70.5169 68.9149 75.4771ZM105.582 112.15L118.628 125.298L105.304 139.162L91.9796 153.024L79.2833 140.203C72.2995 133.151 66.5869 126.402 66.5869 125.208C66.5869 123.054 89.4258 99.0014 91.4704 99.0014C92.0562 99.0014 98.4063 104.919 105.582 112.15ZM32.1525 114.342C37.4037 119.62 41.6996 124.547 41.6996 125.29C41.6996 126.033 37.2046 131.192 31.7103 136.755L21.719 146.871L10.8604 136.126L0 125.38L9.69073 115.061C15.0204 109.387 20.107 104.745 20.9934 104.745C21.8798 104.745 26.9013 109.064 32.1525 114.342ZM224.947 141.371C228.927 143.615 237.352 148.225 243.67 151.615C291.938 177.509 288.739 174.906 283.732 184.21C272.037 205.952 250.569 226.907 229.656 236.992C207.558 247.649 200.103 249.196 171.879 248.982C148.836 248.806 144.582 248.233 132.634 243.704C113.463 236.437 100.083 228.038 85.8593 214.344L73.4309 202.379L82.4612 193.211L91.4915 184.043L103.939 196.19C117.204 209.132 132.33 217.496 151.506 222.49C172.276 227.9 194.657 224.943 217.299 213.797C230.719 207.19 251.76 188.948 249.738 185.676C248.299 183.346 228.368 171.749 225.804 171.749C224.897 171.749 222.372 173.256 220.193 175.099C211.398 182.538 208.956 184.286 204.397 186.392C191.793 192.218 186.565 193.162 170.535 192.501C156.763 191.932 151.698 190.814 142.752 186.371C132.023 181.043 116.362 166.473 116.362 161.823C116.362 158.656 129.896 144.947 133.023 144.947C134.388 144.947 135.506 145.68 135.506 146.578C135.506 149.928 147.643 160.743 155.314 164.225C165.386 168.799 180.173 168.852 190.083 164.35C198.001 160.753 208.898 149.829 212.538 141.84C215.074 136.273 215.855 136.244 224.947 141.371ZM68.9149 153.968C73.9517 158.93 78.0734 163.754 78.0734 164.689C78.0734 166.442 59.6644 185.15 57.9376 185.15C56.4444 185.15 37.8708 166.138 37.8708 164.61C37.8708 162.498 55.6901 144.947 57.8343 144.947C58.891 144.947 63.8761 149.008 68.9149 153.968Z" fill="white"/>
<path fill-rule="evenodd" clip-rule="evenodd" d="M723.698 70.9019C745.495 73.9992 757.363 90.3049 754.41 113.1C752.872 124.988 749.383 131.655 741.916 136.979C735.493 141.559 727.694 143.499 713.451 144.06L701.422 144.535V161.767V179H685.711H670V124.5V70L693.812 70.0193C706.909 70.0299 720.357 70.4273 723.698 70.9019ZM814.347 70.3434C814.347 70.5315 823.626 94.8819 834.968 124.455C846.309 154.026 855.588 178.408 855.588 178.633C855.588 178.86 848.012 178.927 838.752 178.782L821.916 178.518L818.493 169.595L815.069 160.673L797.278 160.674L779.487 160.677L775.93 169.597L772.371 178.518L755.554 178.782C746.304 178.927 738.736 178.878 738.736 178.674C738.736 178.469 747.394 156.212 757.976 129.215C768.556 102.218 778.089 77.8499 779.157 75.0642L781.102 70H797.724C806.866 70 814.347 70.1543 814.347 70.3434ZM870.999 76.0596C873.264 79.3586 877.531 85.4597 880.481 89.6181L885.843 97.1777L895.333 83.5893L904.822 70H923.411C933.635 70 942 70.2701 942 70.6C942 70.9308 932.942 83.7977 921.87 99.1946L901.74 127.188V153.094V179H886.029H870.318V153.375V127.752L850.188 99.8091C839.116 84.442 830.058 71.4479 830.058 70.9337C830.058 70.3637 837.232 70.0116 848.469 70.0309L866.881 70.0608L870.999 76.0596ZM673.928 124.418V175.142H685.711H697.495V157.882V140.622L712.469 140.204C724.863 139.857 728.392 139.421 732.941 137.675C743.264 133.711 748.849 125.971 750.456 113.4C752.797 95.0854 746.241 82.2437 731.589 76.4455C726.922 74.5992 724.109 74.3851 700.195 74.0562L673.928 73.6954V124.418ZM782.843 76.4841C782.273 77.958 773.442 100.486 763.217 126.546C752.993 152.607 744.628 174.202 744.628 174.535C744.628 174.869 750.263 175.141 757.148 175.14L769.668 175.137L773.226 166.217L776.784 157.296L797.003 157.036L817.222 156.776L818.589 159.448C819.341 160.917 821.009 165.049 822.297 168.631L824.639 175.142H837.168C844.058 175.142 849.695 174.816 849.693 174.418C849.691 174.021 841.113 151.34 830.631 124.018L811.573 74.3407L797.725 74.0725L783.878 73.8054L782.843 76.4841ZM836.931 74.3967C836.931 74.6928 845.327 86.5825 855.588 100.817L874.245 126.699V150.92V175.142H886.029H897.812V150.591V126.04L915.77 101.155C925.647 87.468 934.068 75.7278 934.485 75.0642C935.077 74.1208 932.143 73.8584 920.998 73.8584H906.754L896.689 88.3448C891.153 96.3114 886.186 102.687 885.651 102.512C885.116 102.336 880.231 95.8291 874.797 88.0516L864.917 73.9095L850.924 73.8845C843.229 73.87 836.931 74.1005 836.931 74.3967ZM714.517 93.0675C717.887 93.6115 720.167 94.7198 722.372 96.8873C725.302 99.7657 725.48 100.348 725.48 107.093C725.48 113.64 725.244 114.487 722.685 117.111C719.306 120.576 713.758 122.088 704.424 122.088H697.495V107.137V92.1858L703.632 92.2437C707.008 92.2746 711.906 92.646 714.517 93.0675ZM701.422 107.137V118.23H707.854C718.113 118.23 722.043 115.326 722.043 107.746C722.043 99.1252 718.173 96.0442 707.346 96.0442H701.422V107.137ZM804.933 119.918C808.103 129.336 810.903 137.583 811.154 138.246C811.506 139.174 808.429 139.451 797.758 139.451C790.14 139.451 783.906 139.126 783.906 138.729C783.906 138.331 786.594 130.084 789.879 120.401C794.481 106.84 796.234 102.796 797.51 102.796C798.788 102.796 800.492 106.729 804.933 119.918ZM793.2 122.245C791.171 128.26 789.306 133.724 789.057 134.387C788.719 135.293 790.71 135.593 797.057 135.593C801.706 135.593 805.509 135.268 805.509 134.871C805.509 133.51 798.391 112.926 797.641 112.116C797.229 111.672 795.23 116.23 793.2 122.245Z" fill="white"/>
<path fill-rule="evenodd" clip-rule="evenodd" d="M368.331 72.157C377.217 74.902 384.004 80.409 387.649 87.83C390.177 92.98 390.5 94.712 390.496 103.137C390.493 110.996 390.081 113.549 388.11 117.916C385.255 124.245 377.474 131.615 371.877 133.292C369.714 133.94 368.069 134.824 368.222 135.255C368.435 135.856 384.595 157.34 400.29 177.887C401.046 178.876 397.512 179.137 383.368 179.137H365.491L352.496 158.685L339.5 138.234L339.23 158.685L338.959 179.137H324.48H310V124.637V70.137H335.895C359.052 70.137 362.481 70.351 368.331 72.157ZM435.075 84.943L444.855 99.249L454.551 85.114C459.884 77.34 464.771 70.778 465.412 70.532C466.053 70.287 473.887 70.21 482.822 70.361L499.067 70.637L479.033 99.017L459 127.397V153.267V179.137H444.5H430V152.664V126.19L410.5 98.599C399.775 83.424 391 70.801 391 70.549C391 70.296 398.716 70.213 408.147 70.363L425.295 70.637L435.075 84.943ZM565.079 72.92C576.397 77.45 582.971 86.02 585.123 99.049C587.325 112.387 583.546 126.528 575.839 133.779C568.512 140.674 559.724 143.137 542.451 143.137H531V161.137V179.137H516.5H502V124.568V70L530.75 70.343C557.727 70.665 559.844 70.824 565.079 72.92ZM662 82.137V94.137H650.5H639V136.637V179.137H624.5H610V136.637V94.137H598H586V82.137V70.137H624H662V82.137ZM339 105.779V119.422L345.085 118.786C353.086 117.95 357.472 115.769 359.423 111.659C364.376 101.22 357.369 92.214 344.25 92.159L339 92.137V105.779ZM531 106.778V120.419L539.624 119.881C545.99 119.484 548.935 118.833 550.874 117.394C554.211 114.918 556.292 108.823 555.466 103.937C554.146 96.123 549.134 93.153 537.25 93.143L531 93.137V106.778Z" fill="white"/>
</svg>
